<svg width="121" height="36" viewBox="0 0 121 36" fill="none" xmlns="http://www.w3.org/2000/svg">
<g clip-path="url(#clip0_128_8621)">
<path d="M20.9959 22.0293C20.9959 14.3091 25.819 8.91763 33.4518 8.91763C41.0846 8.91763 45.9336 14.3584 45.9336 22.0293C45.9336 29.7003 41.0857 35.141 33.4777 35.141C25.8697 35.141 20.9959 29.7003 20.9959 22.0293ZM39.7715 22.0293C39.7715 17.2992 37.4506 13.7944 33.4529 13.7944C29.4552 13.7944 27.1602 17.4212 27.1602 22.0293C27.1602 26.6374 29.4034 30.2642 33.4529 30.2642C37.5023 30.2642 39.7715 26.7348 39.7715 22.0293Z" fill="#C7D944"/>
<path d="M72.7131 22.1759C72.7131 14.0149 77.5103 8.91661 83.7253 8.91661C87.0519 8.91661 89.5023 10.5101 90.714 12.7649V0.314606H96.7747V34.5042H90.8435V31.0486C89.4505 33.3773 86.5879 35.142 83.1837 35.142C77.0453 35.142 72.7131 29.9217 72.7131 22.177V22.1759ZM90.714 22.2005V21.857C90.714 17.1023 88.3154 13.7934 84.8335 13.7934C81.0678 13.7934 78.8763 17.1515 78.8763 22.1021C78.8763 27.0527 81.0171 30.2632 84.8076 30.2632C88.3413 30.2632 90.7129 26.9789 90.7129 22.1995L90.714 22.2005Z" fill="#C7D944"/>
<path d="M99.743 0.314606H105.932V6.12344H99.743V0.314606ZM99.7948 9.5544H105.881V34.5042H99.7948V9.5544Z" fill="#C7D944"/>
<path d="M121.151 35.141C114.386 35.141 108.901 29.9289 108.901 23.4997V11.4719H114.988V23.4997C114.988 26.8609 117.696 29.6223 121.151 29.9197V35.141Z" fill="#C7D944"/>
<path d="M120.517 11.9559C113.752 11.9559 108.267 6.7438 108.267 0.314606H114.211C114.211 3.75377 116.981 6.57872 120.517 6.88326V11.9569V11.9559Z" fill="#C7D944"/>
<path d="M69.5118 26.9635V16.8829C69.5118 11.638 65.076 8.91763 59.3509 8.91763C53.1359 8.91763 48.5189 12.1527 48.4164 17.5196H54.3476C54.4512 15.0197 56.4365 13.7452 59.2473 13.7452C61.8779 13.7452 63.4769 14.8721 63.4769 16.8818C63.4769 19.431 61.0524 19.676 57.03 20.3866C51.2012 21.3915 47.565 23.4013 47.565 28.1068C47.565 32.8123 51.0469 35.141 55.7665 35.141C59.5062 35.141 63.0216 33.3742 64.6682 30.7082C65.814 33.3465 68.6421 35.141 72.3754 35.141V29.9197C70.7774 29.9197 69.5128 28.5252 69.5128 26.9635H69.5118ZM63.4769 26.9799C62.2911 28.9897 59.8666 30.3616 57.03 30.3616C54.9928 30.3616 53.6516 29.5772 53.6516 27.6905C53.6516 25.6807 55.1989 24.8717 58.1133 24.2103C60.9758 23.5735 62.2134 23.1316 63.478 21.9801V26.9799H63.4769Z" fill="#C7D944"/>
<path d="M13.0168 19.9355C17.063 18.3994 19.5522 14.992 19.5522 10.5624C19.5522 4.46128 14.782 0.319733 7.82033 0.319733H-0.121063V5.19546H7.17617C10.9149 5.19546 13.2865 7.32725 13.2865 10.5613C13.2865 13.7954 10.9397 15.9518 7.17617 15.9518H-0.121063V20.8275C7.5085 20.8275 13.6933 26.7051 13.6933 34.5001H19.6817C19.6817 28.6051 17.104 23.4433 13.0178 19.9334L13.0168 19.9355Z" fill="#C7D944"/>
</g>
<defs>
<clipPath id="clip0_128_8621">
<rect width="121" height="35" fill="white" transform="translate(0 0.227783)"/>
</clipPath>
</defs>
</svg>
