<svg width="20" height="20" viewBox="0 0 20 20" fill="none" xmlns="http://www.w3.org/2000/svg">
<path d="M10 18C8.90278 18 7.86806 17.7917 6.89583 17.375C5.92361 16.9583 5.07292 16.3854 4.34375 15.6562C3.61458 14.9271 3.04167 14.0764 2.625 13.1042C2.20833 12.1319 2 11.0972 2 10C2 8.88889 2.20833 7.85069 2.625 6.88542C3.04167 5.92014 3.61458 5.07292 4.34375 4.34375C5.07292 3.61458 5.92361 3.04167 6.89583 2.625C7.86806 2.20833 8.90278 2 10 2C11.1111 2 12.1493 2.20833 13.1146 2.625C14.0799 3.04167 14.9271 3.61458 15.6562 4.34375C16.3854 5.07292 16.9583 5.92014 17.375 6.88542C17.7917 7.85069 18 8.88889 18 10C18 11.0972 17.7917 12.1319 17.375 13.1042C16.9583 14.0764 16.3854 14.9271 15.6562 15.6562C14.9271 16.3854 14.0799 16.9583 13.1146 17.375C12.1493 17.7917 11.1111 18 10 18ZM9.25 16.4583V13.9167C8.44444 13.7639 7.75347 13.3993 7.17708 12.8229C6.60069 12.2465 6.23611 11.5556 6.08333 10.75H3.54167C3.70833 12.2639 4.32292 13.5521 5.38542 14.6146C6.44792 15.6771 7.73611 16.2917 9.25 16.4583ZM10.75 16.4583C12.2639 16.2917 13.5521 15.6771 14.6146 14.6146C15.6771 13.5521 16.2917 12.2639 16.4583 10.75H13.9167C13.7639 11.5556 13.3993 12.2465 12.8229 12.8229C12.2465 13.3993 11.5556 13.7639 10.75 13.9167V16.4583ZM3.54167 9.25H6L8.25 7H11.75L14 9.25H16.4583C16.2639 7.625 15.559 6.26042 14.3438 5.15625C13.1285 4.05208 11.6806 3.5 10 3.5C8.31944 3.5 6.87153 4.05208 5.65625 5.15625C4.44097 6.26042 3.73611 7.625 3.54167 9.25Z" fill="#C7D944"/>
</svg>
