<svg width="20" height="20" viewBox="0 0 20 20" fill="none" xmlns="http://www.w3.org/2000/svg">
<path d="M10 14C10.2267 14 10.4167 13.9233 10.57 13.77C10.7233 13.6167 10.8 13.4267 10.8 13.2C10.8 12.9733 10.7233 12.7833 10.57 12.63C10.4167 12.4767 10.2267 12.4 10 12.4C9.77333 12.4 9.58333 12.4767 9.43 12.63C9.27667 12.7833 9.2 12.9733 9.2 13.2C9.2 13.4267 9.27667 13.6167 9.43 13.77C9.58333 13.9233 9.77333 14 10 14ZM9.2 10.8H10.8V6H9.2V10.8ZM10 18C8.89333 18 7.85333 17.79 6.88 17.37C5.90667 16.95 5.06 16.38 4.34 15.66C3.62 14.94 3.05 14.0933 2.63 13.12C2.21 12.1467 2 11.1067 2 10C2 8.89333 2.21 7.85333 2.63 6.88C3.05 5.90667 3.62 5.06 4.34 4.34C5.06 3.62 5.90667 3.05 6.88 2.63C7.85333 2.21 8.89333 2 10 2C11.1067 2 12.1467 2.21 13.12 2.63C14.0933 3.05 14.94 3.62 15.66 4.34C16.38 5.06 16.95 5.90667 17.37 6.88C17.79 7.85333 18 8.89333 18 10C18 11.1067 17.79 12.1467 17.37 13.12C16.95 14.0933 16.38 14.94 15.66 15.66C14.94 16.38 14.0933 16.95 13.12 17.37C12.1467 17.79 11.1067 18 10 18Z" fill="#C7D944"/>
</svg>
