<svg width="20" height="20" viewBox="0 0 20 20" fill="none" xmlns="http://www.w3.org/2000/svg">
<path d="M4.5 17C4.0875 17 3.73437 16.8579 3.44062 16.5736C3.14687 16.2893 3 15.9476 3 15.5484V4.90323C3 4.50403 3.14687 4.1623 3.44062 3.87802C3.73437 3.59375 4.0875 3.45161 4.5 3.45161H8.0625C8.17361 3.03495 8.40625 2.68884 8.76042 2.41331C9.11458 2.13777 9.52778 2 10 2C10.4722 2 10.8854 2.13777 11.2396 2.41331C11.5938 2.68884 11.8264 3.03495 11.9375 3.45161H15.5C15.9125 3.45161 16.2656 3.59375 16.5594 3.87802C16.8531 4.1623 17 4.50403 17 4.90323V15.5484C17 15.9476 16.8531 16.2893 16.5594 16.5736C16.2656 16.8579 15.9125 17 15.5 17H4.5ZM6 14.0968H12V12.6452H6V14.0968ZM6 10.9516H14V9.5H6V10.9516ZM6 7.80645H14V6.35484H6V7.80645ZM10 4.41935C10.1444 4.41935 10.2639 4.37366 10.3583 4.28226C10.4528 4.19086 10.5 4.07527 10.5 3.93548C10.5 3.7957 10.4528 3.68011 10.3583 3.58871C10.2639 3.49731 10.1444 3.45161 10 3.45161C9.85556 3.45161 9.73611 3.49731 9.64167 3.58871C9.54722 3.68011 9.5 3.7957 9.5 3.93548C9.5 4.07527 9.54722 4.19086 9.64167 4.28226C9.73611 4.37366 9.85556 4.41935 10 4.41935Z" fill="#C7D944"/>
</svg>
