<svg width="20" height="20" viewBox="0 0 20 20" fill="none" xmlns="http://www.w3.org/2000/svg">
<path d="M5 15.5V16.5C5 16.6417 4.95208 16.7604 4.85625 16.8562C4.76042 16.9521 4.64167 17 4.5 17H3.5C3.35833 17 3.23958 16.9521 3.14375 16.8562C3.04792 16.7604 3 16.6417 3 16.5V10L4.625 5.9375C4.72222 5.64583 4.9 5.41667 5.15833 5.25C5.41667 5.08333 5.70417 5 6.02083 5H13.9792C14.2958 5 14.5833 5.08333 14.8417 5.25C15.1 5.41667 15.2778 5.64583 15.375 5.9375L17 10V16.5C17 16.6417 16.9521 16.7604 16.8562 16.8562C16.7604 16.9521 16.6417 17 16.5 17H15.5C15.3583 17 15.2396 16.9521 15.1438 16.8562C15.0479 16.7604 15 16.6417 15 16.5V15.5H5ZM5.02083 9H14.9792L13.9792 6.5H6.02083L5.02083 9ZM6.5 13.25C6.77778 13.25 7.01389 13.1528 7.20833 12.9583C7.40278 12.7639 7.5 12.5278 7.5 12.25C7.5 11.9722 7.40278 11.7361 7.20833 11.5417C7.01389 11.3472 6.77778 11.25 6.5 11.25C6.22222 11.25 5.98611 11.3472 5.79167 11.5417C5.59722 11.7361 5.5 11.9722 5.5 12.25C5.5 12.5278 5.59722 12.7639 5.79167 12.9583C5.98611 13.1528 6.22222 13.25 6.5 13.25ZM13.5 13.25C13.7778 13.25 14.0139 13.1528 14.2083 12.9583C14.4028 12.7639 14.5 12.5278 14.5 12.25C14.5 11.9722 14.4028 11.7361 14.2083 11.5417C14.0139 11.3472 13.7778 11.25 13.5 11.25C13.2222 11.25 12.9861 11.3472 12.7917 11.5417C12.5972 11.7361 12.5 11.9722 12.5 12.25C12.5 12.5278 12.5972 12.7639 12.7917 12.9583C12.9861 13.1528 13.2222 13.25 13.5 13.25Z" fill="#C7D944"/>
</svg>
